Coordinates
version=1
nRows=17
nColumns=40
inDegrees=yes

Units are S.I. units (second, meters, Newtons, ...)
If the header above contains a line with 'inDegrees', this indicates whether rotational values are in degrees (yes) or radians (no).

endheader
time	pelvis_tilt	pelvis_list	pelvis_rotation	pelvis_tx	pelvis_ty	pelvis_tz	hip_flexion_r	hip_adduction_r	hip_rotation_r	knee_angle_r	knee_angle_r_beta	ankle_angle_r	subtalar_angle_r	mtp_angle_r	hip_flexion_l	hip_adduction_l	hip_rotation_l	knee_angle_l	knee_angle_l_beta	ankle_angle_l	subtalar_angle_l	mtp_angle_l	lumbar_extension	lumbar_bending	lumbar_rotation	arm_flex_r	arm_add_r	arm_rot_r	elbow_flex_r	pro_sup_r	wrist_flex_r	wrist_dev_r	arm_flex_l	arm_add_l	arm_rot_l	elbow_flex_l	pro_sup_l	wrist_flex_l	wrist_dev_l
      7.85000000	     24.22957798	      5.68872182	     12.04756822	      0.02379137	      1.33836003	     -0.00715079	     11.28580989	    -11.00496509	    -19.43301363	     60.70164421	      1.05944355	    -18.37272062	    -24.80470980	      0.00000000	     37.91671250	      6.55320487	      8.22780368	     78.28876352	      1.36639669	    -26.35263911	    -31.78058306	      0.00000000	    -79.25728745	      4.16602002	      8.84650552	     29.00772608	    -17.70192869	    -35.99623685	     55.18917363	     32.67224086	      0.00000000	      0.00000000	     56.55828100	     23.20540624	    -24.00879801	     40.88496738	     52.41865497	      0.00000000	      0.00000000
      7.86700000	     24.28014980	      5.09295013	     11.76338079	      0.02441492	      1.33904640	     -0.00737331	     14.20619637	    -11.32927016	    -18.94745836	     66.74870128	      1.16498461	    -17.62480157	    -24.69619235	      0.00000000	     34.49268803	      5.27871658	      7.92288732	     71.76821695	      1.25259168	    -26.65898544	    -32.50313371	      0.00000000	    -79.22545868	      4.25415026	      9.35664133	     29.66674256	    -17.56603771	    -36.06915075	     54.74644847	     33.28676728	      0.00000000	      0.00000000	     56.66176471	     23.33934801	    -25.24046909	     41.05654532	     53.99043891	      0.00000000	      0.00000000
      7.88300000	     24.42292617	      4.36122809	     11.49174380	      0.02519342	      1.33965025	     -0.00749967	     17.30746892	    -11.52135765	    -18.48738909	     72.74570753	      1.26965211	    -16.94271906	    -24.96901488	      0.00000000	     30.50475202	      3.77274213	      7.70107109	     64.85054237	      1.13185549	    -26.81344198	    -32.61123655	      0.00000000	    -79.19349233	      4.45895094	      9.96641947	     30.33031385	    -17.36335560	    -36.08358229	     54.32683271	     33.86227365	      0.00000000	      0.00000000	     56.74466534	     23.25822858	    -26.10468350	     41.03617809	     54.81159451	      0.00000000	      0.00000000
      7.90000000	     24.48534170	      3.69680833	     11.14375646	      0.02595002	      1.33989620	     -0.00747722	     20.67437601	    -11.66399663	    -17.74939531	     78.30674032	      1.36671045	    -16.19345374	    -25.03055171	      0.00000000	     26.51401839	      2.20335326	      7.05477769	     58.23203551	      1.01634075	    -27.21804707	    -32.33292952	      0.00000000	    -79.04922647	      4.61283371	     10.43514787	     31.04391222	    -17.08023281	    -36.03199325	     53.84964899	     34.39951560	      0.00000000	      0.00000000	     56.77830824	     23.01288436	    -26.83222802	     41.04004355	     55.30035586	      0.00000000	      0.00000000
      7.91700000	     24.44222728	      3.17291956	     10.51136469	      0.02678047	      1.33985095	     -0.00728656	     24.39970206	    -11.93702552	    -16.69479524	     83.38433818	      1.45533125	    -15.34454784	    -24.23558413	      0.00000000	     22.46201427	      0.73513714	      5.88486089	     51.96547524	      0.90696864	    -27.98881574	    -32.12251955	      0.00000000	    -78.78832298	      4.53968984	     10.65146294	     32.00327437	    -16.56966991	    -36.53563961	     53.38825399	     38.02885687	      0.00000000	      0.00000000	     56.69110022	     22.87730580	    -28.65663264	     41.63719271	     59.16213446	      0.00000000	      0.00000000
      7.93300000	     24.33397012	      2.71089382	      9.72334742	      0.02767951	      1.33948023	     -0.00676008	     28.42046083	    -12.15361626	    -15.49529095	     88.02223705	      1.53627785	    -14.56183804	    -23.60398165	      0.00000000	     18.33846486	     -0.69388610	      4.33705240	     46.04046911	      0.80355778	    -28.59784427	    -31.17961575	      0.00000000	    -78.41162625	      4.33957958	     10.80701714	     32.87327088	    -16.12581521	    -36.31772070	     52.75168004	     38.33557326	      0.00000000	      0.00000000	     56.59901007	     22.32430391	    -29.19652578	     41.61885078	     58.91318717	      0.00000000	      0.00000000
      7.95000000	     24.26847408	      2.21069436	      9.14043371	      0.02833103	      1.33883497	     -0.00654153	     32.21782768	    -12.20190822	    -14.38313166	     91.95825464	      1.60497432	    -13.24746257	    -23.03494293	      0.00000000	     14.59933642	     -1.97562654	      2.89629795	     41.16603655	      0.71848288	    -29.54346381	    -30.09614687	      0.00000000	    -77.97339314	      4.32104270	     10.96389565	     33.62639571	    -15.55997903	    -36.28445176	     52.05986969	     38.87505600	      0.00000000	      0.00000000	     56.38091104	     21.75523251	    -29.65143026	     41.60492147	     58.67438147	      0.00000000	      0.00000000
      7.96700000	     24.26294224	      1.62107511	      9.00028591	      0.02846433	      1.33808134	     -0.00679433	     35.74150177	    -12.11840348	    -13.56877171	     95.34202088	      1.66403218	    -11.19923793	    -23.38091926	      0.00000000	     11.40369260	     -3.17681475	      2.02136768	     37.74803015	      0.65882741	    -30.61971813	    -28.76643735	      0.00000000	    -77.44368176	      4.66734408	     11.15770105	     34.13425357	    -14.85242289	    -36.47547029	     51.30975037	     39.28678491	      0.00000000	      0.00000000	     56.09295875	     21.18260377	    -30.04529556	     41.44544983	     58.49611314	      0.00000000	      0.00000000
      7.98300000	     24.34156732	      1.15305095	      8.94531919	      0.02814915	      1.33753600	     -0.00711875	     39.02275706	    -12.01181315	    -12.64214358	     98.03417793	      1.71101918	     -8.75605338	    -23.95782413	      0.00000000	      8.52271522	     -4.19992043	      1.27779429	     35.50988748	      0.61976445	    -31.74981054	    -27.78702831	      0.00000000	    -76.95765338	      5.02215164	     11.22557923	     34.56909286	    -14.03647570	    -36.83797346	     50.50334395	     39.70447968	      0.00000000	      0.00000000	     55.76802045	     20.60029738	    -30.39115838	     41.27951753	     58.31355415	      0.00000000	      0.00000000
      8.00000000	     24.52648425	      1.03422049	      8.70288088	      0.02797867	      1.33723532	     -0.00725163	     41.70830144	    -11.90911658	    -11.22607604	     99.50186593	      1.73663517	     -6.46221181	    -23.46060694	      0.00000000	      6.10681050	     -4.73619988	      0.52506005	     34.57012261	      0.60336246	    -32.84713311	    -27.82621880	      0.00000000	    -76.66351634	      5.08285121	     10.97390709	     35.17082325	    -12.84708758	    -38.57285867	     49.99720956	     45.45149646	      0.00000000	      0.00000000	     55.34242344	     19.91117389	    -30.30539688	     41.11291030	     56.79798339	      0.00000000	      0.00000000
      8.01700000	     24.70777817	      0.86495623	      8.85696072	      0.02753079	      1.33712617	     -0.00742879	     43.63510628	    -11.77662362	    -10.37076165	     99.36081403	      1.73417335	     -5.24427006	    -23.83639864	      0.00000000	      4.75026695	     -5.18265650	      0.68394227	     35.54443365	      0.62036740	    -33.11572529	    -28.00180891	      0.00000000	    -76.54999868	      5.43677166	     10.78678535	     35.67172445	    -11.81318787	    -39.36250184	     49.36233155	     45.39279692	      0.00000000	      0.00000000	     55.09801720	     19.45772886	    -30.57906555	     41.03860975	     56.67454072	      0.00000000	      0.00000000
      8.03300000	     25.00178122	      0.93829499	      8.93344377	      0.02693508	      1.33746709	     -0.00741045	     44.85311156	    -11.61392334	     -9.28296789	     97.96099791	      1.70974195	     -4.60195284	    -23.96434940	      0.00000000	      3.96289949	     -5.28808819	      1.16610757	     37.99314820	      0.66310553	    -33.24766659	    -28.67979301	      0.00000000	    -76.68212043	      5.59731346	     10.42660500	     36.14411371	    -10.78242276	    -40.15087983	     48.88357665	     45.39991717	      0.00000000	      0.00000000	     54.87263419	     19.04963363	    -30.80068299	     41.07364509	     56.51979017	      0.00000000	      0.00000000
      8.05000000	     25.16001083	      1.16352772	      9.11712013	      0.02626041	      1.33776411	     -0.00751721	     45.32991707	    -11.59675349	     -8.42684666	     95.53651379	      1.66742672	     -4.05894173	    -24.27314229	      0.00000000	      4.03244160	     -5.08042718	      1.88249756	     41.55550759	      0.72528043	    -33.20613146	    -30.01126773	      0.00000000	    -76.68066136	      5.80806531	      9.84003307	     36.78643665	     -9.72702983	    -41.20503218	     48.19731934	     45.67582443	      0.00000000	      0.00000000	     54.59984864	     18.67566729	    -31.14599755	     41.18793460	     56.12138480	      0.00000000	      0.00000000
      8.06700000	     25.44479275	      1.56266652	      9.16430035	      0.02559085	      1.33841371	     -0.00739420	     44.68334399	    -11.61614583	     -7.76724280	     91.95317377	      1.60488564	     -3.62851220	    -24.79966659	      0.00000000	      4.68232649	     -4.60194297	      2.63075437	     46.21172623	      0.80654678	    -33.16005534	    -31.17080361	      0.00000000	    -76.79649804	      5.83940510	      9.26430790	     37.17572469	     -9.15090675	    -41.76731781	     47.65144965	     46.03649251	      0.00000000	      0.00000000	     54.39340835	     18.39620058	    -31.54348942	     41.08848391	     55.57514193	      0.00000000	      0.00000000
      8.08300000	     25.65637735	      1.96733016	      9.33599204	      0.02498334	      1.33900192	     -0.00729938	     43.22096371	    -11.65367865	     -7.50073439	     87.28358453	      1.52338593	     -3.79723216	    -25.89051156	      0.00000000	      6.11707650	     -3.98803681	      3.63574757	     51.88064008	      0.90548799	    -33.18688333	    -31.99989588	      0.00000000	    -76.83216788	      5.99079774	      8.71903075	     37.55390898	     -8.57854069	    -43.19275972	     47.49098201	     50.73338244	      0.00000000	      0.00000000	     54.15526620	     17.79988151	    -30.21272647	     40.26502249	     49.18797983	      0.00000000	      0.00000000
      8.10000000	     25.88394529	      2.55706795	      9.38051925	      0.02452645	      1.33957567	     -0.00699038	     41.06382414	    -11.71430455	     -7.16870509	     82.13685074	      1.43355848	     -3.92263592	    -26.21108574	      0.00000000	      7.82980067	     -3.16185986	      4.42340948	     57.82174145	      1.00917977	    -32.82532853	    -32.59790351	      0.00000000	    -76.90987459	      5.86119513	      7.96796425	     37.88354153	     -8.30633980	    -43.42168208	     46.83018448	     50.62211921	      0.00000000	      0.00000000	     53.94696450	     17.65024848	    -30.60056167	     40.27494256	     48.68399186	      0.00000000	      0.00000000
      8.11700000	     25.91409348	      3.21909343	      9.60422678	      0.02422886	      1.34000213	     -0.00672030	     38.34567308	    -11.87813389	     -7.30937317	     76.28824698	      1.33148109	     -5.16768209	    -27.22798985	      0.00000000	     10.13698960	     -2.19224627	      5.34150544	     63.92772964	      1.11574937	    -32.57986716	    -32.79989917	      0.00000000	    -76.84005985	      5.77716416	      7.05311398	     38.22598739	     -8.14614742	    -43.54157571	     46.19555771	     50.82725359	      0.00000000	      0.00000000	     53.64740749	     17.31396988	    -29.69625724	     40.17761084	     44.65717205	      0.00000000	      0.00000000
